<?xml version="1.0" encoding="utf-8"?>
<svg version="1.1" id="Layer_1" x="0px" y="0px" width="100%" viewBox="0 0 200 200" enable-background="new 0 0 200 200" xmlns="http://www.w3.org/2000/svg">
  <defs/>
  <path fill="#12365E" opacity="1.000000" stroke="none" d="M 187.97 111.77 C 185.37 131.053 177.472 147.53 164.311 161.026 C 151.645 174.014 136.029 182.536 118.046 185.709 C 98.44 189.168 79.247 187.231 61.335 178.049 C 34.925 164.51 18.721 142.81 14.359 113.596 C 9.989 84.323 19.348 59.103 40.926 38.499 C 60.635 19.68 84.437 12.818 110.879 15.256 C 129.255 16.95 145.629 24.325 159.519 36.935 C 176.618 52.46 186.64 71.37 188.004 94.559 C 188.331 100.127 188.007 105.733 187.97 111.77 M 36.106 62.304 C 54.114 44.564 76.105 37.056 101.011 36.997 C 125.772 36.939 147.573 44.835 166.115 62.033 C 166.311 60.885 165.468 58.511 164.88 57.712 C 157.604 47.82 148.821 39.538 137.826 33.988 C 110.747 20.319 84.104 21.551 58.365 37.476 C 48.555 43.546 40.458 51.604 34.589 62.145 C 34.538 62.409 34.487 62.672 34.436 62.936 C 34.819 62.869 35.203 62.803 36.106 62.304 M 163.155 126.399 C 163.413 126.45 163.672 126.501 163.931 126.551 C 163.865 126.171 163.798 125.791 163.268 124.919 C 161.338 123.398 159.408 121.877 157.304 120.22 C 158.151 119.412 158.776 118.817 159.441 118.183 C 158.215 117.277 157.153 116.493 154.77 114.732 C 160.067 114.251 163.846 113.907 168.76 113.46 C 164.703 110.793 161.65 108.786 158.216 106.528 C 161.278 103.491 163.857 100.847 166.548 98.323 C 167.252 97.663 169.04 96.171 168.962 95.799 C 164.078 95.799 159.194 95.799 153.615 95.799 C 154.902 94.265 155.57 93.469 156.466 92.402 C 152.915 92.044 149.829 91.733 146.744 91.421 C 146.692 90.966 146.639 90.512 146.587 90.057 C 149.694 88.631 152.802 87.205 156.536 85.492 C 151.322 84.586 146.856 82.732 142.713 83.289 C 129.532 85.063 116.799 88.733 104.689 94.493 C 102.656 95.46 99.562 95.241 97.308 94.502 C 91.021 92.438 85.069 89.251 78.706 87.539 C 68.326 84.748 57.85 80.161 46.831 86.01 C 49.742 87.453 52.375 90.217 55.259 91.646 C 55.515 93.085 55.339 91.493 55.119 91.751 C 52.074 91.902 49.028 92.053 45.517 92.228 C 46.456 93.503 47.109 94.389 48.479 96.248 C 42.565 96.248 37.749 96.248 33.442 96.248 C 36.845 99.662 40.118 102.944 43.844 106.681 C 40.367 108.913 37.298 110.883 33.245 113.484 C 38.324 113.915 42.193 114.243 47.517 114.695 C 45.529 118.547 36.433 126.604 38.019 126.506 C 40.406 126.56 49.105 125.384 54.581 125.038 C 51.701 128.907 49.636 131.682 47.206 134.946 C 49.481 134.662 50.868 134.488 52.69 134.26 C 52.251 136.029 51.923 137.348 51.497 139.063 C 54.307 138.258 56.653 137.587 60.059 136.611 C 57.938 139.908 55.956 145.258 56.383 145.73 C 62.393 141.578 74.698 132.623 75.116 134.737 C 75.831 132.618 71.667 142.644 71.618 142.906 C 71.999 142.841 72.207 142.8 73.097 142.312 C 74.85 140.721 76.604 139.129 78.793 137.141 C 78.685 139.287 78.622 140.543 78.485 143.262 C 86.567 134.092 93.698 126.001 101.007 117.708 C 108.618 126.267 123.288 139.061 122.851 136.735 C 125.574 139.224 127.493 140.977 129.693 142.948 C 129.961 142.957 130.228 142.967 130.496 142.976 C 130.353 142.634 130.21 142.291 129.93 141.249 C 128.926 138.854 127.765 135.601 127.098 132.812 C 127.208 132.679 127.476 133.405 128.108 133.707 C 133.134 139.224 139.732 142.026 146.915 144.214 C 145.455 141.998 143.995 139.782 141.767 136.4 C 145.468 137.539 147.872 138.279 150.772 139.171 C 150.467 137.317 150.244 135.963 149.982 134.374 C 151.618 134.537 152.922 134.666 154.929 134.866 C 152.475 131.523 150.486 128.814 147.725 125.052 C 153.586 125.448 158.268 125.764 163.155 126.399 M 79.048 66.571 C 78.537 67.42 77.973 68.242 77.525 69.123 C 74.694 74.687 76.259 79.414 81.895 82.401 C 86.764 84.982 92.219 83.33 94.988 78.436 C 97.148 74.619 96.206 69.568 92.706 66.194 C 89.212 62.826 85.207 62.778 79.048 66.571 M 119.904 82.797 C 123.385 80.874 126.702 78.005 125.721 73.881 C 124.929 70.55 122.704 66.854 119.985 64.867 C 116.603 62.396 112.373 63.455 109.094 66.475 M 102.262 177.335 C 116.884 177.134 130.304 173.06 142.471 164.85 C 129.373 169.812 115.962 172.946 101.88 173.039 C 87.887 173.132 74.454 170.416 61.227 165.754 C 64.779 168.273 68.627 170.143 72.386 171.814 C 80.723 175.519 91.137 177.241 102.262 177.335 M 149.381 59.544 C 146.865 57.199 137.859 53.304 136.631 54.488 C 135.792 55.296 135.866 58.01 136.34 58.942 C 137.868 61.949 140.829 63.054 143.448 63.555 M 158.559 72.827 C 162.273 72.037 161.255 69.73 159.517 68.289 C 158.028 67.055 155.716 66.814 153.768 66.134 C 153.935 67.911 154.211 69.762 155.255 71.363 C 155.682 72.017 156.936 72.3 158.559 72.827"/>
  <path opacity="1.000000" stroke="none" d="M 129.412 142.73 C 127.493 140.977 125.574 139.224 122.851 136.735 C 123.288 139.061 123.135 141.997 122.829 142.247 C 115.723 134.257 108.618 126.267 101.007 117.708 C 93.698 126.001 86.567 134.092 78.485 143.262 C 78.622 140.543 78.685 139.287 78.793 137.141 C 76.604 139.129 74.85 140.721 72.675 142.322 C 72.138 142.198 72.024 142.065 71.91 141.932 C 72.921 139.542 72.478 135.182 72.527 134.923 C 72.149 134.988 62.393 141.578 56.383 145.73 C 55.956 145.258 57.938 139.908 60.059 136.611 C 56.653 137.587 54.307 138.258 51.497 139.063 C 51.923 137.348 52.251 136.029 52.69 134.26 C 50.868 134.488 49.481 134.662 47.206 134.946 C 49.636 131.682 51.701 128.907 54.581 125.038 C 49.097 125.413 44.524 125.725 39.31 125.892 C 38.534 125.635 38.399 125.524 38.264 125.413 C 40.982 122.266 43.699 119.118 47.517 114.695 C 42.193 114.243 38.324 113.915 33.245 113.484 C 37.298 110.883 40.367 108.913 43.844 106.681 C 40.118 102.944 36.845 99.662 33.442 96.248 C 37.749 96.248 42.565 96.248 48.479 96.248 C 47.109 94.389 46.456 93.503 45.517 92.228 C 49.028 92.053 52.074 91.902 55.119 91.751 C 55.249 91.271 55.38 90.791 55.51 90.31 C 52.626 88.881 49.742 87.453 46.831 86.01 C 57.85 80.161 68.326 84.748 78.706 87.539 C 85.069 89.251 91.021 92.438 97.308 94.502 C 99.562 95.241 102.656 95.46 104.689 94.493 C 116.799 88.733 129.532 85.063 142.713 83.289 C 146.856 82.732 151.322 84.586 156.536 85.492 C 152.802 87.205 149.694 88.631 146.587 90.057 C 146.639 90.512 145.144 89.5 145.196 89.955 C 148.281 90.267 152.915 92.044 156.466 92.402 C 155.57 93.469 154.902 94.265 153.615 95.799 C 159.194 95.799 164.078 95.799 168.962 95.799 C 169.04 96.171 167.252 97.663 166.548 98.323 C 163.857 100.847 161.278 103.491 158.216 106.528 C 161.65 108.786 164.703 110.793 168.76 113.46 C 163.846 113.907 160.067 114.251 154.77 114.732 C 157.153 116.493 158.215 117.277 159.441 118.183 C 158.776 118.817 158.151 119.412 157.304 120.22 C 159.408 121.877 161.338 123.398 163.303 125.33 C 163.209 125.854 163.08 125.967 162.951 126.079 C 158.268 125.764 153.586 125.448 147.725 125.052 C 150.486 128.814 152.475 131.523 154.929 134.866 C 152.922 134.666 151.618 134.537 149.982 134.374 C 150.244 135.963 150.467 137.317 150.772 139.171 C 147.872 138.279 145.468 137.539 141.767 136.4 C 143.995 139.782 145.455 141.998 146.915 144.214 C 139.732 142.026 133.134 139.224 127.706 133.381 C 127.038 133.047 126.77 133.038 126.503 133.03 C 126.642 133.375 126.78 133.72 126.919 134.065 C 127.923 136.46 128.926 138.854 129.833 141.793 C 130.505 143.359 132.784 145.727 129.412 142.73 Z" style="fill: rgb(255, 255, 255);"/>
  <path opacity="1.000000" stroke="none" d="M 34.91 61.932 C 40.458 51.604 48.555 43.546 58.365 37.476 C 84.104 21.551 110.747 20.319 137.826 33.988 C 148.821 39.538 157.604 47.82 164.88 57.712 C 165.468 58.511 166.311 60.885 166.115 62.033 C 147.573 44.835 125.772 36.939 101.011 36.997 C 76.105 37.056 54.114 44.564 35.679 62.318 C 35.138 62.199 35.024 62.066 34.91 61.932 Z" style="fill: rgb(255, 255, 255);"/>
  <path opacity="1.000000" stroke="none" d="&#10;M79.312546,66.303940 &#10;&#9;C85.207291,62.778263 89.211761,62.826252 92.706047,66.194443 &#10;&#9;C96.206436,69.568497 97.147659,74.618942 94.987518,78.436333 &#10;&#9;C92.218529,83.329674 86.763550,84.981758 81.895164,82.401443 &#10;&#9;C76.259155,79.414284 74.693611,74.687126 77.524780,69.123367 &#10;&#9;C77.973106,68.242317 78.537193,67.420158 79.312546,66.303940 &#10;z" style="fill: rgb(255, 255, 255);"/>
  <path opacity="1.000000" stroke="none" d="M 113.913 83.472 C 104.208 80.09 102.814 72.273 109.094 66.475 C 112.396 63.427 119.164 62.55 122.093 65.659 C 124.458 68.17 125.168 70.456 125.721 73.881 C 126.396 78.066 122.297 81.578 118.807 83.485 C 117.566 84.163 115.731 83.779 113.913 83.472 Z" style="fill: rgb(255, 255, 255);"/>
  <path opacity="1.000000" stroke="none" d="&#10;M101.848114,177.475464 &#10;&#9;C91.739998,175.730240 81.972008,174.146942 72.386436,171.814056 &#10;&#9;C68.388580,170.841049 64.778961,168.272812 61.227379,165.754333 &#10;&#9;C74.454041,170.415817 87.887428,173.131927 101.879677,173.039337 &#10;&#9;C115.961792,172.946136 129.373322,169.811935 142.471100,164.849945 &#10;&#9;C130.304459,173.059555 116.883537,177.133560 101.848114,177.475464 &#10;z" style="fill: rgb(255, 255, 255);"/>
  <path opacity="1.000000" stroke="none" d="M 149.283 59.875 C 148.137 61.525 145.302 63.908 143.448 63.555 C 140.834 63.057 136.01 55.473 136.631 54.488 C 139.946 49.228 147.501 55.958 149.283 59.875 Z" style="fill: rgb(255, 255, 255);"/>
  <path opacity="1.000000" stroke="none" d="M 158.191 72.786 C 156.558 72.74 155.574 72.084 155.255 71.363 C 154.531 69.728 154.232 67.892 153.768 66.134 C 155.743 66.742 157.847 66.815 159.517 68.289 C 161.13 69.712 162.307 71.993 158.191 72.786 Z" style="fill: rgb(255, 255, 255);"/>
  <path fill="#000000" opacity="1.000000" stroke="none" d="&#10;M168.302170,63.671566 &#10;&#9;C168.344757,63.646439 168.259583,63.696697 168.302170,63.671566 &#10;z"/>
</svg>